<svg width="100" height="24" viewBox="0 0 100 24" fill="none" xmlns="http://www.w3.org/2000/svg">
<path d="M4.39062 1.9375C4.36979 3.10417 4.34896 4.23438 4.32812 5.32812C4.31771 5.79688 4.30729 6.27604 4.29688 6.76562C4.29688 7.25521 4.29167 7.73958 4.28125 8.21875C4.28125 8.6875 4.27604 9.14062 4.26562 9.57812C4.26562 10.0052 4.26562 10.3854 4.26562 10.7188C4.26562 11.4167 4.27083 12.2604 4.28125 13.25C4.29167 14.2396 4.30208 15.2552 4.3125 16.2969C4.33333 17.3385 4.35938 18.3385 4.39062 19.2969C4.42188 20.2552 4.45833 21.0521 4.5 21.6875C4.64583 21.7083 4.83854 21.7344 5.07812 21.7656C5.32812 21.7865 5.58854 21.8073 5.85938 21.8281C6.13021 21.8385 6.39583 21.849 6.65625 21.8594C6.91667 21.8698 7.13542 21.875 7.3125 21.875C8.04167 21.875 8.78646 21.8281 9.54688 21.7344C10.3177 21.6302 11.0573 21.4427 11.7656 21.1719C12.4844 20.901 13.1562 20.5312 13.7812 20.0625C14.4167 19.5833 14.9688 18.9688 15.4375 18.2188C15.9167 17.4688 16.2917 16.5677 16.5625 15.5156C16.8333 14.4531 16.9688 13.2031 16.9688 11.7656C16.9688 10.1719 16.776 8.75521 16.3906 7.51562C16.0052 6.26562 15.4375 5.21354 14.6875 4.35938C13.9479 3.50521 13.026 2.85938 11.9219 2.42188C10.8281 1.97396 9.56771 1.75 8.14062 1.75C7.85938 1.75 7.54167 1.76042 7.1875 1.78125C6.83333 1.79167 6.47917 1.80729 6.125 1.82812C5.78125 1.83854 5.45312 1.85938 5.14062 1.89062C4.83854 1.91146 4.58854 1.92708 4.39062 1.9375ZM0.96875 0.53125C1.20833 0.541667 1.43229 0.552083 1.64062 0.5625C1.81771 0.572917 2 0.583333 2.1875 0.59375C2.375 0.59375 2.52604 0.59375 2.64062 0.59375C2.83854 0.59375 3.16667 0.583333 3.625 0.5625C4.09375 0.541667 4.625 0.520833 5.21875 0.5C5.8125 0.479167 6.42708 0.458333 7.0625 0.4375C7.70833 0.416667 8.3125 0.40625 8.875 0.40625C10.3854 0.40625 11.8229 0.59375 13.1875 0.96875C14.5521 1.34375 15.75 1.95833 16.7812 2.8125C17.8125 3.66667 18.6302 4.78646 19.2344 6.17188C19.8385 7.55729 20.1406 9.26042 20.1406 11.2812C20.1406 12.7292 19.9792 14.0312 19.6562 15.1875C19.3438 16.3438 18.901 17.3646 18.3281 18.25C17.7552 19.1354 17.0677 19.8958 16.2656 20.5312C15.474 21.1562 14.5938 21.6719 13.625 22.0781C12.6667 22.4844 11.6406 22.7812 10.5469 22.9688C9.45312 23.1562 8.32292 23.25 7.15625 23.25C6.73958 23.25 6.23438 23.2344 5.64062 23.2031C5.05729 23.1823 4.46875 23.1562 3.875 23.125C3.28125 23.0938 2.71875 23.0625 2.1875 23.0312C1.66667 23.0104 1.26042 23 0.96875 23V22.9375C1.03125 22.7188 1.08854 22.4479 1.14062 22.125C1.20312 21.8021 1.25521 21.401 1.29688 20.9219C1.33854 20.4427 1.36979 19.875 1.39062 19.2188C1.41146 18.5521 1.42188 17.776 1.42188 16.8906V6.71875C1.42188 5.83333 1.41146 5.05729 1.39062 4.39062C1.36979 3.71354 1.33854 3.13542 1.29688 2.65625C1.25521 2.16667 1.20312 1.75521 1.14062 1.42188C1.08854 1.08854 1.03125 0.8125 0.96875 0.59375V0.53125ZM23.9531 22.9375C24.0156 22.7188 24.0729 22.4479 24.125 22.125C24.1771 21.8021 24.224 21.401 24.2656 20.9219C24.3073 20.4427 24.3385 19.875 24.3594 19.2188C24.3802 18.5521 24.3906 17.776 24.3906 16.8906V6.71875C24.3906 5.83333 24.3802 5.0625 24.3594 4.40625C24.3385 3.73958 24.3073 3.16667 24.2656 2.6875C24.224 2.19792 24.1771 1.79167 24.125 1.46875C24.0729 1.14583 24.0156 0.875 23.9531 0.65625V0.59375H27.6875V0.65625C27.625 0.875 27.5625 1.14583 27.5 1.46875C27.4479 1.79167 27.401 2.19792 27.3594 2.6875C27.3281 3.16667 27.2969 3.73958 27.2656 4.40625C27.2448 5.0625 27.2344 5.83333 27.2344 6.71875V16.8906C27.2344 17.776 27.2448 18.5521 27.2656 19.2188C27.2969 19.875 27.3281 20.4427 27.3594 20.9219C27.401 21.401 27.4479 21.8021 27.5 22.125C27.5625 22.4479 27.625 22.7188 27.6875 22.9375V23H23.9531V22.9375ZM47.8125 23V22.9375C47.8333 22.8854 47.849 22.8073 47.8594 22.7031C47.8698 22.599 47.875 22.5052 47.875 22.4219C47.875 22.099 47.8281 21.7448 47.7344 21.3594C47.651 20.9635 47.4844 20.474 47.2344 19.8906L45.3438 15.6406C44.7604 15.6198 43.9844 15.6094 43.0156 15.6094C42.0469 15.6094 41 15.6094 39.875 15.6094C39.0521 15.6094 38.2552 15.6094 37.4844 15.6094C36.724 15.6094 36.0365 15.6198 35.4219 15.6406L33.625 19.7656C33.4688 20.151 33.3021 20.5729 33.125 21.0312C32.9479 21.4896 32.8594 21.9531 32.8594 22.4219C32.8594 22.5573 32.8698 22.6719 32.8906 22.7656C32.9115 22.849 32.9323 22.9062 32.9531 22.9375V23H29.7656V22.9375C29.9531 22.7396 30.1875 22.3906 30.4688 21.8906C30.75 21.3802 31.0573 20.7448 31.3906 19.9844L40.3438 0.125H41.5938L50.0781 19.2188C50.276 19.6667 50.4792 20.1042 50.6875 20.5312C50.9062 20.9479 51.1094 21.3229 51.2969 21.6562C51.4844 21.9896 51.651 22.2708 51.7969 22.5C51.9427 22.7292 52.0417 22.875 52.0938 22.9375V23H47.8125ZM37.6875 14.2656C38.2917 14.2656 38.9115 14.2656 39.5469 14.2656C40.1823 14.2552 40.8021 14.25 41.4062 14.25C42.0208 14.2396 42.6094 14.2344 43.1719 14.2344C43.7344 14.224 44.2448 14.2135 44.7031 14.2031L40.3125 4.28125L36 14.2656H37.6875ZM54.9062 0.59375L71 17.7188V6.71875C71 5.83333 70.9896 5.0625 70.9688 4.40625C70.9479 3.73958 70.9167 3.16667 70.875 2.6875C70.8333 2.19792 70.7812 1.79167 70.7188 1.46875C70.6667 1.14583 70.6094 0.875 70.5469 0.65625V0.59375H73.3281V0.65625C73.2656 0.875 73.2083 1.14583 73.1562 1.46875C73.1042 1.79167 73.0573 2.19792 73.0156 2.6875C72.974 3.16667 72.9427 3.73958 72.9219 4.40625C72.901 5.0625 72.8906 5.83333 72.8906 6.71875V23.3125H72.3438L56.25 6.20312V16.8906C56.25 17.776 56.2604 18.5521 56.2812 19.2188C56.3021 19.875 56.3333 20.4427 56.375 20.9219C56.4167 21.401 56.4635 21.8021 56.5156 22.125C56.5677 22.4479 56.625 22.7188 56.6875 22.9375V23H53.9062V22.9375C53.9688 22.7188 54.026 22.4479 54.0781 22.125C54.1406 21.8021 54.1927 21.401 54.2344 20.9219C54.276 20.4427 54.3073 19.875 54.3281 19.2188C54.349 18.5521 54.3594 17.776 54.3594 16.8906V6.71875C54.3594 5.83333 54.349 5.0625 54.3281 4.40625C54.3073 3.73958 54.276 3.16667 54.2344 2.6875C54.1927 2.19792 54.1406 1.79167 54.0781 1.46875C54.026 1.14583 53.9688 0.875 53.9062 0.65625V0.59375H54.9062ZM87.9062 0.21875C89.6458 0.21875 91.25 0.505208 92.7188 1.07812C94.1979 1.64062 95.474 2.4375 96.5469 3.46875C97.6198 4.48958 98.4583 5.71875 99.0625 7.15625C99.6667 8.59375 99.9688 10.1823 99.9688 11.9219C99.9688 12.9115 99.8542 13.8854 99.625 14.8438C99.3958 15.8021 99.0573 16.7083 98.6094 17.5625C98.1719 18.4167 97.6302 19.2083 96.9844 19.9375C96.3385 20.6562 95.599 21.2812 94.7656 21.8125C93.9427 22.3333 93.0312 22.7396 92.0312 23.0312C91.0312 23.3333 89.9531 23.4844 88.7969 23.4844C87.0573 23.4844 85.4479 23.2083 83.9688 22.6562C82.5 22.0938 81.2292 21.3021 80.1562 20.2812C79.0833 19.2604 78.2448 18.0365 77.6406 16.6094C77.0365 15.1719 76.7344 13.5781 76.7344 11.8281C76.7344 10.8385 76.849 9.86458 77.0781 8.90625C77.3073 7.94792 77.6406 7.03646 78.0781 6.17188C78.526 5.30729 79.0677 4.51562 79.7031 3.79688C80.349 3.06771 81.0833 2.4375 81.9062 1.90625C82.7396 1.375 83.6562 0.963542 84.6562 0.671875C85.6667 0.369792 86.75 0.21875 87.9062 0.21875ZM88.7969 22.0781C89.9531 22.0781 91.0104 21.8698 91.9688 21.4531C92.9271 21.0365 93.75 20.4323 94.4375 19.6406C95.1354 18.849 95.6771 17.8854 96.0625 16.75C96.4479 15.6042 96.6406 14.3073 96.6406 12.8594C96.6406 11.2552 96.4531 9.77083 96.0781 8.40625C95.7135 7.03125 95.1667 5.84375 94.4375 4.84375C93.7083 3.83333 92.7969 3.04688 91.7031 2.48438C90.6198 1.91146 89.3542 1.625 87.9062 1.625C86.75 1.625 85.6927 1.83333 84.7344 2.25C83.776 2.65625 82.9479 3.25 82.25 4.03125C81.5625 4.8125 81.026 5.77083 80.6406 6.90625C80.2552 8.04167 80.0625 9.33333 80.0625 10.7812C80.0625 12.375 80.2448 13.8646 80.6094 15.25C80.974 16.625 81.5208 17.8177 82.25 18.8281C82.9792 19.8385 83.8906 20.6354 84.9844 21.2188C86.0781 21.7917 87.349 22.0781 88.7969 22.0781Z" fill="white"/>
</svg>
